<?xml version="1.0" encoding="UTF-8"?><svg id="Layer_1" xmlns="http://www.w3.org/2000/svg" xmlns:xlink="http://www.w3.org/1999/xlink" viewBox="0 0 155.08 110.56"><defs><style>.cls-1{fill:url(#linear-gradient-8);}.cls-2{fill:url(#linear-gradient-7);}.cls-3{fill:url(#linear-gradient-5);}.cls-4{fill:url(#linear-gradient-6);}.cls-5{fill:url(#linear-gradient-9);}.cls-6{fill:url(#linear-gradient-4);}.cls-7{fill:url(#linear-gradient-3);}.cls-8{fill:url(#linear-gradient-2);}.cls-9{fill:url(#linear-gradient);}.cls-10{fill:#292f45;}</style><linearGradient id="linear-gradient" x1="-14.62" y1="16.87" x2="152.35" y2="-29.13" gradientUnits="userSpaceOnUse"><stop offset=".37" stop-color="#292f45"/><stop offset=".82" stop-color="#ff931e"/></linearGradient><linearGradient id="linear-gradient-2" x1="-9.77" y1="34.55" x2="157.15" y2="-11.42" xlink:href="#linear-gradient"/><linearGradient id="linear-gradient-3" x1="-5.24" y1="51.1" x2="161.69" y2="5.12" xlink:href="#linear-gradient"/><linearGradient id="linear-gradient-4" x1="-10.7" y1="32.54" x2="157.2" y2="-13.7" xlink:href="#linear-gradient"/><linearGradient id="linear-gradient-5" x1="-6.39" y1="48.16" x2="161.5" y2="1.91" xlink:href="#linear-gradient"/><linearGradient id="linear-gradient-6" x1="-2.09" y1="63.79" x2="165.8" y2="17.54" xlink:href="#linear-gradient"/><linearGradient id="linear-gradient-7" x1="-8.33" y1="41.12" x2="159.56" y2="-5.13" xlink:href="#linear-gradient"/><linearGradient id="linear-gradient-8" x1="-3.76" y1="57.73" x2="164.13" y2="11.48" xlink:href="#linear-gradient"/><linearGradient id="linear-gradient-9" x1="1.8" y1="77.89" x2="169.69" y2="31.64" xlink:href="#linear-gradient"/></defs><path class="cls-10" d="M16.68,83.89c0,.68-.3,1.02-.91,1.02h-3.8c-.63,0-.95-.34-.95-1.02v-10.37c0-.97-.47-1.58-1.41-1.84-.43-.12-1.3-.18-2.62-.18-1.45,0-3.45.06-6.01.18-.61.02-.91-.25-.91-.84v-2.65c0-.58.27-.92.8-1.02,1.65-.31,4.28-.47,7.91-.47,2.9,0,4.96.51,6.2,1.52,1.14.97,1.71,2.54,1.71,4.72v10.95ZM6.15,83.89c0,.68-.32,1.02-.95,1.02H1.4c-.61,0-.91-.34-.91-1.02v-5.07c0-1.21.3-2.38.91-3.49.17-.33.49-.5.95-.5h2.94c.58,0,.87.28.87.84v8.22Z"/><path class="cls-10" d="M36.55,75.55c0,3.43-.52,5.85-1.56,7.26-1.11,1.57-3.44,2.36-7,2.36h-.04c-1.72,0-3.04-.1-3.95-.3-1.46-.36-2.55-1.03-3.27-2.02-.92-1.31-1.37-3.63-1.37-6.94s.38-5.59,1.15-6.85c1.06-1.72,3.54-2.58,7.44-2.58h.04c3.86,0,6.32.85,7.39,2.54.78,1.26,1.17,3.44,1.17,6.54ZM30.86,77.61v-3.62c0-1.16-.17-1.93-.53-2.29-.35-.36-1.07-.54-2.16-.54h-.43c-1.11,0-1.83.16-2.14.47s-.47,1.06-.47,2.22v3.8c0,1.16.19,1.92.57,2.27.38.35,1.12.53,2.24.53h.21c.95,0,1.64-.2,2.08-.6.43-.4.65-1.15.65-2.23Z"/><path class="cls-10" d="M54.13,70.47c0,.53-.24.84-.72.91l-1.6.26v12.25c0,.68-.3,1.02-.91,1.02h-3.8c-.63,0-.95-.34-.95-1.02v-12.25s-6.96,0-6.96,0c-.61,0-.91-.32-.91-.95v-3.01c0-.61.3-.91.91-.91h14.11c.56,0,.84.27.84.8v2.9Z"/><path class="cls-10" d="M65.77,83.64c0,.84-.39,1.26-1.17,1.26h-7.61c-.61,0-.91-.3-.91-.91v-2.97c0-.63.3-.95.91-.95h3.16s0-7.4,0-7.4c0-.82-.56-1.22-1.67-1.22-.41,0-.77.02-1.1.07-.53.1-.8-.14-.8-.73v-2.84c0-.41.21-.71.64-.9.43-.19,1.56-.29,3.39-.29s3.07.38,3.91,1.14c.84.76,1.25,2.07,1.25,3.91v11.82Z"/><path class="cls-10" d="M84.89,83.89c0,.68-.3,1.02-.91,1.02h-3.8c-.63,0-.95-.34-.95-1.02v-10.37c0-.97-.47-1.58-1.41-1.84-.43-.12-1.3-.18-2.62-.18-1.45,0-3.45.06-6.01.18-.61.02-.91-.25-.91-.84v-2.65c0-.58.27-.92.8-1.02,1.65-.31,4.28-.47,7.91-.47,2.9,0,4.96.51,6.2,1.52,1.14.97,1.71,2.54,1.71,4.72v10.95ZM74.37,83.89c0,.68-.32,1.02-.95,1.02h-3.8c-.61,0-.91-.34-.91-1.02v-5.07c0-1.21.3-2.38.91-3.49.17-.33.49-.5.95-.5h2.94c.58,0,.87.28.87.84v8.22Z"/><path class="cls-10" d="M110.13,68.3v1.45c0,.46-.06.86-.18,1.21l-4.57,13.01c-.24.63-.56.95-.98.95h-4.08c-.47,0-.71-.28-.71-.84,0-.15.04-.32.11-.5l4.18-11.93h-8.67c-.61,0-.91-.32-.91-.95v-7.4c0-.69.3-1.04.91-1.04h3.73c.63,0,.95.35.95,1.04v3.49s8.52,0,8.52,0c1.14,0,1.71.51,1.71,1.52Z"/><path class="cls-10" d="M134.54,67.92l-1.99,10.41c-.46,2.38-1.22,4.07-2.28,5.09-1.24,1.14-3.41,1.71-6.53,1.71h-2.25c-2.97,0-5.01-.63-6.13-1.89-.85-1.01-1.48-2.74-1.89-5.18l-1.67-10.1c-.05-.31.01-.58.19-.83.17-.24.4-.36.69-.36h3.92c.53,0,.85.32.95.95l1.19,8.11.15-.09c.61-.3.93-.78.99-1.47l.69-6.51c.05-.66.38-.99.98-.99h3.66c.56,0,.84.24.84.73l-.07.47-.95,5.77c-.24,1.55-1.11,2.7-2.64,3.45l-3.16,1.6c.16.72.34,1.19.54,1.41.25.31.68.46,1.3.46h3.02c.58,0,1.03-.06,1.34-.17.7-.2,1.16-.85,1.37-1.97l2.01-10.88c.11-.58.45-.87,1-.87h4.03c.61,0,.84.39.72,1.15Z"/><path class="cls-10" d="M154.14,84.04c0,.58-.24.87-.72.87h-4.1c-.64,0-1.15-.28-1.52-.84l-5.14-7.5-.07.09c.17.61.2,1.18.07,1.71l-1.41,5.63c-.15.61-.45.91-.91.91h-3.42c-.66,0-.98-.29-.98-.87v-.19s.87-3.95.87-3.95c.39-1.83,1.05-3.22,1.97-4.16l1.84-1.85-4.12-5.48c-.22-.3-.33-.56-.33-.8,0-.56.28-.84.84-.84h3.41c.72,0,1.3.32,1.74.95l4.71,6.42.09-.07c-.16-.83-.19-1.47-.09-1.93l1.11-4.45c.15-.61.45-.91.91-.91h3.66c.68,0,1.02.22,1.02.65,0,.15-.02.33-.07.54l-.72,3.02c-.41,1.78-1.2,3.25-2.36,4.42l-1.45,1.45,4.94,6.5c.16.2.24.43.24.69Z"/><path class="cls-10" d="M4.16,106.18c0,.21-.03.34-.09.4-.06.06-.21.09-.43.09H.56c-.25,0-.37-.13-.37-.39v-1.09c0-.18.03-.29.1-.34.07-.05.17-.07.32-.07h1.32s0-5.54,0-5.54h-.61c-.28.01-.41-.11-.41-.35v-.91c0-.18.01-.3.03-.36.02-.05.12-.09.28-.12.89-.11,2.49-.17,4.81-.17,1.39,0,2.39.24,3,.73s.91,1.32.91,2.5v5.68c0,.3-.13.45-.39.45h-1.48c-.26,0-.39-.15-.39-.45v-5.68c0-.51-.14-.86-.41-1.05-.27-.2-.71-.29-1.33-.29-.5,0-1.09,0-1.78,0v6.99Z"/><path class="cls-10" d="M15.1,106.21c0,.21-.03.34-.11.38-.07.05-.18.07-.33.07h-1.41c-.28,0-.41-.15-.41-.45v-8.4c0-.31.14-.47.41-.47h1.44c.19,0,.31.03.35.09.05.06.07.18.07.38v8.4Z"/><path class="cls-10" d="M26.61,106.31c0,.23-.08.35-.25.35h-1.74c-.2,0-.34-.04-.43-.11-.01-.01-.1-.12-.25-.32l-3.24-4.26c-.06.02-.17.39-.32,1.12l-.63,3.11c-.07.31-.24.47-.51.47h-1.3c-.28,0-.42-.15-.42-.45v-.09s.43-2.21.43-2.21c.21-1,.55-1.7,1-2.11l.97-.84-2.29-2.87c-.13-.16-.19-.28-.19-.37,0-.25.09-.37.27-.37h1.7c.19,0,.38.12.57.37l2.99,3.77c.12-.1.24-.44.35-1.03l.52-2.64c.07-.31.22-.47.46-.47h1.44c.32,0,.48.09.48.25,0,.05-.02.17-.06.36l-.32,1.64c-.2.93-.59,1.64-1.16,2.13l-.93.76,2.69,3.47c.12.14.18.26.18.35Z"/><path class="cls-10" d="M30.98,102.44c0,.18-.02.29-.07.34-.05.05-.15.07-.32.07h-1.45c-.28,0-.41-.14-.41-.41v-4.75c0-.24.14-.35.41-.35h1.43c.19,0,.31.02.35.07s.06.16.06.36v4.67Z"/><path class="cls-10" d="M41.66,97.62c0,.1-.04.27-.13.5l-.68,2.17c-.18.57-.42,1.04-.72,1.41-.3.37-.75.78-1.35,1.21l1.97,1.59c.26.2.39.42.39.66v1c0,.34-.15.51-.46.51h-6.77c-.19,0-.32-.02-.37-.06-.05-.04-.08-.14-.08-.3v-1.16c0-.16.03-.27.08-.33s.16-.08.32-.08h4.53c.09,0,.14-.02.14-.08.01-.02-.01-.05-.08-.09-.54-.29-1.12-.68-1.74-1.19-1.38-1.12-2.32-2.3-2.81-3.56l-.81-1.98c-.14-.34-.04-.5.32-.5h1.53c.23,0,.42.16.56.47l.83,1.92c.51,1.16,1,1.95,1.48,2.39.18-.3.43-.96.76-1.99l.69-2.15c.14-.42.31-.63.51-.63h1.54c.25,0,.37.09.37.27Z"/><path class="cls-10" d="M53.04,103.59c0,1.02-.25,1.8-.77,2.35-.51.55-1.24.82-2.19.82-.73,0-1.32-.08-1.76-.23-.17-.06-.27-.11-.3-.15-.02-.05-.04-.15-.04-.32v-.89c0-.25.15-.36.46-.32.54.04.86.06.95.06.94,0,1.41-.41,1.41-1.23v-3.08c0-.91-.47-1.36-1.41-1.36h-1.37c-.61,0-1.01.14-1.2.41v6.6c0,.18-.02.3-.07.34-.05.05-.15.07-.32.07h-1.49c-.17,0-.27-.02-.31-.07-.04-.04-.06-.16-.06-.34v-6.1c0-.29-.1-.54-.3-.76l-.48-.52c-.15-.16-.22-.28-.22-.37s.07-.2.22-.33l.92-.8c.15-.13.29-.19.43-.19.11,0,.21.05.32.13l.37.37c.16.17.35.39.58.65.79-.68,1.51-1.02,2.18-1.02h1.41c2.02,0,3.02.96,3.02,2.87v3.42Z"/><path class="cls-10" d="M63.37,98.05l-2.94,8.13c-.12.32-.3.49-.52.49h-1.62c-.16,0-.23-.09-.23-.26,0-.1.04-.25.11-.43l2.44-6.72h-4.84c-.28,0-.41-.14-.41-.41v-4.08c0-.26.15-.39.46-.39h1.41c.25,0,.39.16.39.47v2.5s5.37,0,5.37,0c.3,0,.46.11.46.35,0,.09-.02.21-.06.35Z"/><path class="cls-10" d="M73.09,110.15c0,.27-.14.41-.43.41h-1.41c-.28,0-.41-.14-.41-.41v-12.38c0-.28.15-.43.46-.43h1.44c.19,0,.3.02.33.07.03.05.05.18.05.4v12.34Z"/><path class="cls-10" d="M78.24,106.21c0,.21-.04.34-.11.38-.07.05-.18.07-.33.07h-1.42c-.27,0-.41-.15-.41-.45v-8.4c0-.31.14-.47.41-.47h1.44c.19,0,.3.03.35.09.04.06.07.18.07.38v8.4Z"/><path class="cls-10" d="M85.92,98.59c0,.2-.13.33-.38.39l-.69.2c-.37.1-.64.31-.81.62-.23.41-.34.95-.34,1.62,0,.34.09.87.27,1.59l.71,3.02c.03.12.04.21.04.26,0,.25-.14.37-.43.37h-1.44c-.22,0-.36-.16-.43-.49l-.64-2.87c-.16-.67-.23-1.18-.23-1.53-.03-.9.29-1.74.94-2.52h-1.46c-.27,0-.41-.14-.41-.41v-1.12c0-.26.14-.39.41-.39h4.52c.24,0,.36.12.36.37v.88Z"/><path class="cls-10" d="M96.63,106.25c0,.27-.14.41-.41.41h-1.46c-.16,0-.27-.02-.32-.07-.05-.04-.07-.16-.07-.34v-5.84c0-.5-.11-.83-.34-1s-.67-.25-1.33-.25c-1.16,0-1.87.02-2.14.06v7.03c0,.27-.14.41-.43.41h-1.46c-.16,0-.26-.02-.31-.07-.05-.04-.07-.16-.07-.34v-8.35c0-.24.16-.39.48-.43,1.16-.13,2.57-.19,4.24-.19,1.29,0,2.21.22,2.77.66.56.44.84,1.2.84,2.27v6.04Z"/><path class="cls-10" d="M112.73,106.25c0,.27-.14.41-.41.41h-7.61c-.28,0-.41-.14-.41-.41v-7s-.46,0-.46,0c-.29,0-.43-.11-.43-.35v-1.02c0-.26.13-.4.39-.43,1.55-.1,3.08-.16,4.6-.16,1.64,0,2.78.21,3.4.63.62.41.93,1.24.93,2.49v5.84ZM110.47,104.77v-4.35c0-.53-.17-.88-.5-1.04-.26-.13-.82-.19-1.66-.19h-1.76s0,5.58,0,5.58h3.92Z"/><path class="cls-10" d="M117.73,102.45c0,.18-.02.29-.07.34-.05.05-.16.07-.32.07h-1.45c-.27,0-.41-.14-.41-.41v-4.75c0-.24.14-.35.41-.35h1.43c.2,0,.32.02.35.07.04.05.06.16.06.36v4.67Z"/><path class="cls-10" d="M127.43,101.82c0,1.96-.32,3.28-.97,3.94-.64.66-1.72.98-3.22.98-1.11,0-2.01-.1-2.72-.3-.23-.06-.34-.22-.34-.47v-.97c0-.23.17-.34.5-.3.84.07,1.59.11,2.23.11.82,0,1.39-.11,1.71-.33.32-.22.49-.64.49-1.26v-2.42c0-.64-.21-1.08-.62-1.32-.34-.19-.94-.29-1.79-.29-.74,0-1.46.06-2.14.17-.25.04-.39-.06-.39-.3v-.97c0-.25.11-.41.32-.49.61-.21,1.52-.32,2.74-.32,1.33,0,2.3.2,2.91.6.47.33.8.79,1,1.37.19.59.29,1.43.29,2.54Z"/><path class="cls-10" d="M138.11,103.36c0,2.25-1.38,3.37-4.15,3.37-1.42,0-2.57-.1-3.44-.3-.25-.05-.38-.22-.38-.5v-.78c0-.31.14-.46.4-.43,1.08.1,2.11.14,3.1.14.87,0,1.45-.1,1.74-.3s.43-.53.43-1v-3.55c0-.39-.14-.65-.43-.78-.22-.1-.66-.14-1.35-.14-.8,0-1.36.02-1.68.05v1.81c0,.11,0,.18,0,.19.01.05.09.07.23.07h1.37c.25,0,.37.13.37.39v.88c0,.31-.23.47-.71.47h-2.59c-.33,0-.54-.02-.64-.08-.17-.09-.25-.32-.25-.67v-4.14c0-.25.16-.4.48-.47.98-.22,2.1-.33,3.34-.33,1.73,0,2.87.29,3.42.86.48.5.73,1.27.73,2.31v2.93Z"/><path class="cls-10" d="M143.14,106.21c0,.21-.03.34-.11.38-.07.05-.18.07-.33.07h-1.41c-.28,0-.41-.15-.41-.45v-8.4c0-.31.14-.47.41-.47h1.44c.19,0,.31.03.35.09.05.06.07.18.07.38v8.4Z"/><path class="cls-10" d="M154.02,106.21c0,.21-.04.34-.11.38-.07.05-.18.07-.31.07h-1.41c-.29,0-.43-.15-.43-.45v-6c0-.56-.36-.89-1.08-.97-.48-.05-1.13-.08-1.94-.08-.8,0-1.63.03-2.49.09-.3.02-.46-.09-.46-.35v-.97c0-.27.14-.43.43-.46,1.34-.13,2.57-.19,3.68-.19,1.44,0,2.48.22,3.13.67.65.45.98,1.19.98,2.23v6.02ZM148.28,106.21c0,.21-.03.34-.11.38-.07.05-.18.07-.33.07h-1.41c-.27,0-.41-.15-.41-.45v-2.78c0-.62.17-1.22.5-1.79.09-.16.24-.24.43-.24h.93c.26,0,.39.12.39.37v4.43Z"/><path class="cls-9" d="M38.26,0H1.29C.58,0,0,.57,0,1.28,0,3.85,0,9.62,0,12.19c0,.71.58,1.28,1.29,1.28h41.65c.59,0,1.15-.27,1.52-.72l7.77-9.55C53.27,1.91,52.36,0,50.71,0h-12.46Z"/><path class="cls-8" d="M1.96,17.87C.88,17.87,0,18.75,0,19.83v10.22c0,.71.58,1.29,1.29,1.29h49.42c1.65,0,2.56-1.92,1.52-3.2l-7.77-9.55c-.37-.46-.93-.72-1.52-.72H1.96Z"/><path class="cls-7" d="M0,47.93c0-2.57,0-8.34,0-10.91,0-.71.58-1.28,1.29-1.28h41.65c.59,0,1.15.26,1.52.72l7.77,9.55c1.04,1.28.13,3.19-1.52,3.19H1.29c-.71,0-1.29-.57-1.29-1.28Z"/><path class="cls-6" d="M61.1,0h35.67c.58,0,1.12.25,1.49.69l8.1,9.55c1.08,1.27.17,3.22-1.49,3.22h-51.55c-1.65,0-2.56-1.92-1.52-3.2L59.58.72C59.95.27,60.51,0,61.1,0Z"/><path class="cls-3" d="M106.37,28.12l-8.1-9.55c-.37-.44-.92-.69-1.49-.69h-43.44c-1.65,0-2.56,1.91-1.52,3.19l7.77,9.55c.37.46.93.72,1.52.72h43.77c1.67,0,2.57-1.95,1.49-3.23Z"/><path class="cls-4" d="M97.21,49.21h-36.11c-.59,0-1.15-.27-1.52-.72l-7.77-9.55c-1.04-1.28-.13-3.19,1.52-3.19h51.66c1.65,0,2.56,1.92,1.52,3.2l-7.77,9.55c-.37.46-.93.72-1.52.72Z"/><path class="cls-2" d="M125.73,0h-18.48c-1.67,0-2.57,1.95-1.49,3.23l8.1,9.55c.37.44.92.69,1.49.69h10.38c1.08,0,1.96-.88,1.96-1.96V1.96C127.69.88,126.81,0,125.73,0Z"/><path class="cls-1" d="M127.69,29.38v-9.55c0-1.08-.88-1.96-1.96-1.96h-18.48c-1.67,0-2.57,1.95-1.49,3.22l8.1,9.55c.37.44.92.69,1.49.69h10.38c1.08,0,1.96-.88,1.96-1.96Z"/><path class="cls-5" d="M145.35,49.21h-37.74c-1.65,0-2.56-1.92-1.52-3.2l7.77-9.55c.37-.46.93-.72,1.52-.72h37.74c1.65,0,2.56,1.92,1.52,3.2l-7.77,9.55c-.37.46-.93.72-1.52.72Z"/></svg>